<mxfile host="65bd71144e">
    <diagram id="Lcc8n4wwwaIPt8a8V7Ad" name="第 1 页">
        <mxGraphModel dx="1497" dy="1139" grid="1" gridSize="10" guides="1" tooltips="1" connect="1" arrows="0" fold="1" page="1" pageScale="1" pageWidth="1169" pageHeight="827" math="0" shadow="0">
            <root>
                <mxCell id="0"/>
                <mxCell id="1" parent="0"/>
                <mxCell id="2" value="原型链" style="text;html=1;strokeColor=none;fillColor=none;align=center;verticalAlign=middle;whiteSpace=wrap;rounded=0;fontSize=22;" vertex="1" parent="1">
                    <mxGeometry x="300" y="10" width="86" height="30" as="geometry"/>
                </mxCell>
                <mxCell id="59" style="edgeStyle=none;html=1;startArrow=none;" edge="1" parent="1" source="61" target="38">
                    <mxGeometry relative="1" as="geometry"/>
                </mxCell>
                <mxCell id="3" value="" style="shape=table;html=1;whiteSpace=wrap;startSize=0;container=1;collapsible=0;childLayout=tableLayout;fontSize=22;" vertex="1" parent="1">
                    <mxGeometry x="40" y="390" width="240" height="90" as="geometry"/>
                </mxCell>
                <mxCell id="4" value="" style="shape=tableRow;horizontal=0;startSize=0;swimlaneHead=0;swimlaneBody=0;top=0;left=0;bottom=0;right=0;collapsible=0;dropTarget=0;fillColor=none;points=[[0,0.5],[1,0.5]];portConstraint=eastwest;fontSize=22;" vertex="1" parent="3">
                    <mxGeometry width="240" height="45" as="geometry"/>
                </mxCell>
                <mxCell id="5" value="Student" style="shape=partialRectangle;html=1;whiteSpace=wrap;connectable=0;fillColor=none;top=0;left=0;bottom=0;right=0;overflow=hidden;fontSize=22;rowspan=1;colspan=2;" vertex="1" parent="4">
                    <mxGeometry width="240" height="45" as="geometry">
                        <mxRectangle width="120" height="45" as="alternateBounds"/>
                    </mxGeometry>
                </mxCell>
                <mxCell id="6" value="" style="shape=partialRectangle;html=1;whiteSpace=wrap;connectable=0;fillColor=none;top=0;left=0;bottom=0;right=0;overflow=hidden;fontSize=22;" vertex="1" visible="0" parent="4">
                    <mxGeometry x="120" width="120" height="45" as="geometry">
                        <mxRectangle width="120" height="45" as="alternateBounds"/>
                    </mxGeometry>
                </mxCell>
                <mxCell id="7" value="" style="shape=tableRow;horizontal=0;startSize=0;swimlaneHead=0;swimlaneBody=0;top=0;left=0;bottom=0;right=0;collapsible=0;dropTarget=0;fillColor=none;points=[[0,0.5],[1,0.5]];portConstraint=eastwest;fontSize=22;" vertex="1" parent="3">
                    <mxGeometry y="45" width="240" height="45" as="geometry"/>
                </mxCell>
                <mxCell id="8" value="prototype" style="shape=partialRectangle;html=1;whiteSpace=wrap;connectable=0;fillColor=none;top=0;left=0;bottom=0;right=0;overflow=hidden;fontSize=22;" vertex="1" parent="7">
                    <mxGeometry width="120" height="45" as="geometry">
                        <mxRectangle width="120" height="45" as="alternateBounds"/>
                    </mxGeometry>
                </mxCell>
                <mxCell id="9" value="" style="shape=partialRectangle;html=1;whiteSpace=wrap;connectable=0;fillColor=none;top=0;left=0;bottom=0;right=0;overflow=hidden;fontSize=22;" vertex="1" parent="7">
                    <mxGeometry x="120" width="120" height="45" as="geometry">
                        <mxRectangle width="120" height="45" as="alternateBounds"/>
                    </mxGeometry>
                </mxCell>
                <mxCell id="10" value="" style="shape=table;html=1;whiteSpace=wrap;startSize=0;container=1;collapsible=0;childLayout=tableLayout;fontSize=22;" vertex="1" parent="1">
                    <mxGeometry x="40" y="600" width="240" height="180" as="geometry"/>
                </mxCell>
                <mxCell id="11" value="" style="shape=tableRow;horizontal=0;startSize=0;swimlaneHead=0;swimlaneBody=0;top=0;left=0;bottom=0;right=0;collapsible=0;dropTarget=0;fillColor=none;points=[[0,0.5],[1,0.5]];portConstraint=eastwest;fontSize=22;" vertex="1" parent="10">
                    <mxGeometry width="240" height="45" as="geometry"/>
                </mxCell>
                <mxCell id="12" value="xialuo" style="shape=partialRectangle;html=1;whiteSpace=wrap;connectable=0;fillColor=none;top=0;left=0;bottom=0;right=0;overflow=hidden;fontSize=22;rowspan=1;colspan=2;" vertex="1" parent="11">
                    <mxGeometry width="240" height="45" as="geometry">
                        <mxRectangle width="120" height="45" as="alternateBounds"/>
                    </mxGeometry>
                </mxCell>
                <mxCell id="13" value="" style="shape=partialRectangle;html=1;whiteSpace=wrap;connectable=0;fillColor=none;top=0;left=0;bottom=0;right=0;overflow=hidden;fontSize=22;" vertex="1" visible="0" parent="11">
                    <mxGeometry x="120" width="120" height="45" as="geometry">
                        <mxRectangle width="120" height="45" as="alternateBounds"/>
                    </mxGeometry>
                </mxCell>
                <mxCell id="14" value="" style="shape=tableRow;horizontal=0;startSize=0;swimlaneHead=0;swimlaneBody=0;top=0;left=0;bottom=0;right=0;collapsible=0;dropTarget=0;fillColor=none;points=[[0,0.5],[1,0.5]];portConstraint=eastwest;fontSize=22;" vertex="1" parent="10">
                    <mxGeometry y="45" width="240" height="45" as="geometry"/>
                </mxCell>
                <mxCell id="15" value="name&lt;span style=&quot;white-space: pre;&quot;&gt;&#9;&lt;/span&gt;" style="shape=partialRectangle;html=1;whiteSpace=wrap;connectable=0;fillColor=none;top=0;left=0;bottom=0;right=0;overflow=hidden;fontSize=22;" vertex="1" parent="14">
                    <mxGeometry width="120" height="45" as="geometry">
                        <mxRectangle width="120" height="45" as="alternateBounds"/>
                    </mxGeometry>
                </mxCell>
                <mxCell id="16" value="夏洛" style="shape=partialRectangle;html=1;whiteSpace=wrap;connectable=0;fillColor=none;top=0;left=0;bottom=0;right=0;overflow=hidden;fontSize=22;" vertex="1" parent="14">
                    <mxGeometry x="120" width="120" height="45" as="geometry">
                        <mxRectangle width="120" height="45" as="alternateBounds"/>
                    </mxGeometry>
                </mxCell>
                <mxCell id="17" style="shape=tableRow;horizontal=0;startSize=0;swimlaneHead=0;swimlaneBody=0;top=0;left=0;bottom=0;right=0;collapsible=0;dropTarget=0;fillColor=none;points=[[0,0.5],[1,0.5]];portConstraint=eastwest;fontSize=22;" vertex="1" parent="10">
                    <mxGeometry y="90" width="240" height="45" as="geometry"/>
                </mxCell>
                <mxCell id="18" value="number" style="shape=partialRectangle;html=1;whiteSpace=wrap;connectable=0;fillColor=none;top=0;left=0;bottom=0;right=0;overflow=hidden;fontSize=22;" vertex="1" parent="17">
                    <mxGeometry width="120" height="45" as="geometry">
                        <mxRectangle width="120" height="45" as="alternateBounds"/>
                    </mxGeometry>
                </mxCell>
                <mxCell id="19" value="100" style="shape=partialRectangle;html=1;whiteSpace=wrap;connectable=0;fillColor=none;top=0;left=0;bottom=0;right=0;overflow=hidden;fontSize=22;" vertex="1" parent="17">
                    <mxGeometry x="120" width="120" height="45" as="geometry">
                        <mxRectangle width="120" height="45" as="alternateBounds"/>
                    </mxGeometry>
                </mxCell>
                <mxCell id="20" style="shape=tableRow;horizontal=0;startSize=0;swimlaneHead=0;swimlaneBody=0;top=0;left=0;bottom=0;right=0;collapsible=0;dropTarget=0;fillColor=none;points=[[0,0.5],[1,0.5]];portConstraint=eastwest;fontSize=22;" vertex="1" parent="10">
                    <mxGeometry y="135" width="240" height="45" as="geometry"/>
                </mxCell>
                <mxCell id="21" value="__proto__" style="shape=partialRectangle;html=1;whiteSpace=wrap;connectable=0;fillColor=none;top=0;left=0;bottom=0;right=0;overflow=hidden;fontSize=22;" vertex="1" parent="20">
                    <mxGeometry width="120" height="45" as="geometry">
                        <mxRectangle width="120" height="45" as="alternateBounds"/>
                    </mxGeometry>
                </mxCell>
                <mxCell id="22" style="shape=partialRectangle;html=1;whiteSpace=wrap;connectable=0;fillColor=none;top=0;left=0;bottom=0;right=0;overflow=hidden;fontSize=22;" vertex="1" parent="20">
                    <mxGeometry x="120" width="120" height="45" as="geometry">
                        <mxRectangle width="120" height="45" as="alternateBounds"/>
                    </mxGeometry>
                </mxCell>
                <mxCell id="23" value="" style="shape=table;html=1;whiteSpace=wrap;startSize=0;container=1;collapsible=0;childLayout=tableLayout;fontSize=22;" vertex="1" parent="1">
                    <mxGeometry x="480" y="470" width="240" height="135" as="geometry"/>
                </mxCell>
                <mxCell id="24" value="" style="shape=tableRow;horizontal=0;startSize=0;swimlaneHead=0;swimlaneBody=0;top=0;left=0;bottom=0;right=0;collapsible=0;dropTarget=0;fillColor=none;points=[[0,0.5],[1,0.5]];portConstraint=eastwest;fontSize=22;" vertex="1" parent="23">
                    <mxGeometry width="240" height="45" as="geometry"/>
                </mxCell>
                <mxCell id="25" value="Student.prototype" style="shape=partialRectangle;html=1;whiteSpace=wrap;connectable=0;fillColor=none;top=0;left=0;bottom=0;right=0;overflow=hidden;fontSize=22;rowspan=1;colspan=2;" vertex="1" parent="24">
                    <mxGeometry width="240" height="45" as="geometry">
                        <mxRectangle width="120" height="45" as="alternateBounds"/>
                    </mxGeometry>
                </mxCell>
                <mxCell id="26" value="" style="shape=partialRectangle;html=1;whiteSpace=wrap;connectable=0;fillColor=none;top=0;left=0;bottom=0;right=0;overflow=hidden;fontSize=22;" vertex="1" visible="0" parent="24">
                    <mxGeometry x="120" width="120" height="45" as="geometry">
                        <mxRectangle width="120" height="45" as="alternateBounds"/>
                    </mxGeometry>
                </mxCell>
                <mxCell id="27" value="" style="shape=tableRow;horizontal=0;startSize=0;swimlaneHead=0;swimlaneBody=0;top=0;left=0;bottom=0;right=0;collapsible=0;dropTarget=0;fillColor=none;points=[[0,0.5],[1,0.5]];portConstraint=eastwest;fontSize=22;" vertex="1" parent="23">
                    <mxGeometry y="45" width="240" height="45" as="geometry"/>
                </mxCell>
                <mxCell id="28" value="asyHi()" style="shape=partialRectangle;html=1;whiteSpace=wrap;connectable=0;fillColor=none;top=0;left=0;bottom=0;right=0;overflow=hidden;fontSize=22;" vertex="1" parent="27">
                    <mxGeometry width="120" height="45" as="geometry">
                        <mxRectangle width="120" height="45" as="alternateBounds"/>
                    </mxGeometry>
                </mxCell>
                <mxCell id="29" value="函数" style="shape=partialRectangle;html=1;whiteSpace=wrap;connectable=0;fillColor=none;top=0;left=0;bottom=0;right=0;overflow=hidden;fontSize=22;" vertex="1" parent="27">
                    <mxGeometry x="120" width="120" height="45" as="geometry">
                        <mxRectangle width="120" height="45" as="alternateBounds"/>
                    </mxGeometry>
                </mxCell>
                <mxCell id="49" style="shape=tableRow;horizontal=0;startSize=0;swimlaneHead=0;swimlaneBody=0;top=0;left=0;bottom=0;right=0;collapsible=0;dropTarget=0;fillColor=none;points=[[0,0.5],[1,0.5]];portConstraint=eastwest;fontSize=22;" vertex="1" parent="23">
                    <mxGeometry y="90" width="240" height="45" as="geometry"/>
                </mxCell>
                <mxCell id="50" value="__proto__" style="shape=partialRectangle;html=1;whiteSpace=wrap;connectable=0;fillColor=none;top=0;left=0;bottom=0;right=0;overflow=hidden;fontSize=22;" vertex="1" parent="49">
                    <mxGeometry width="120" height="45" as="geometry">
                        <mxRectangle width="120" height="45" as="alternateBounds"/>
                    </mxGeometry>
                </mxCell>
                <mxCell id="51" style="shape=partialRectangle;html=1;whiteSpace=wrap;connectable=0;fillColor=none;top=0;left=0;bottom=0;right=0;overflow=hidden;fontSize=22;" vertex="1" parent="49">
                    <mxGeometry x="120" width="120" height="45" as="geometry">
                        <mxRectangle width="120" height="45" as="alternateBounds"/>
                    </mxGeometry>
                </mxCell>
                <mxCell id="30" value="" style="endArrow=classic;html=1;fontSize=22;entryX=0;entryY=0.5;entryDx=0;entryDy=0;" edge="1" parent="1" target="27">
                    <mxGeometry width="50" height="50" relative="1" as="geometry">
                        <mxPoint x="280" y="460" as="sourcePoint"/>
                        <mxPoint x="330" y="410" as="targetPoint"/>
                    </mxGeometry>
                </mxCell>
                <mxCell id="31" value="" style="endArrow=classic;html=1;fontSize=22;exitX=1;exitY=0.5;exitDx=0;exitDy=0;entryX=0;entryY=0.5;entryDx=0;entryDy=0;" edge="1" parent="1" source="20" target="27">
                    <mxGeometry width="50" height="50" relative="1" as="geometry">
                        <mxPoint x="390" y="660" as="sourcePoint"/>
                        <mxPoint x="500" y="446" as="targetPoint"/>
                    </mxGeometry>
                </mxCell>
                <mxCell id="32" value="" style="endArrow=classic;html=1;fontSize=22;exitX=0.5;exitY=0;exitDx=0;exitDy=0;exitPerimeter=0;startArrow=none;" edge="1" parent="1" source="33" target="7">
                    <mxGeometry width="50" height="50" relative="1" as="geometry">
                        <mxPoint x="160" y="580" as="sourcePoint"/>
                        <mxPoint x="200" y="540" as="targetPoint"/>
                    </mxGeometry>
                </mxCell>
                <mxCell id="34" value="" style="shape=table;html=1;whiteSpace=wrap;startSize=0;container=1;collapsible=0;childLayout=tableLayout;fontSize=22;" vertex="1" parent="1">
                    <mxGeometry x="90" y="160" width="240" height="90" as="geometry"/>
                </mxCell>
                <mxCell id="35" value="" style="shape=tableRow;horizontal=0;startSize=0;swimlaneHead=0;swimlaneBody=0;top=0;left=0;bottom=0;right=0;collapsible=0;dropTarget=0;fillColor=none;points=[[0,0.5],[1,0.5]];portConstraint=eastwest;fontSize=22;" vertex="1" parent="34">
                    <mxGeometry width="240" height="45" as="geometry"/>
                </mxCell>
                <mxCell id="36" value="People" style="shape=partialRectangle;html=1;whiteSpace=wrap;connectable=0;fillColor=none;top=0;left=0;bottom=0;right=0;overflow=hidden;fontSize=22;rowspan=1;colspan=2;" vertex="1" parent="35">
                    <mxGeometry width="240" height="45" as="geometry">
                        <mxRectangle width="120" height="45" as="alternateBounds"/>
                    </mxGeometry>
                </mxCell>
                <mxCell id="37" value="" style="shape=partialRectangle;html=1;whiteSpace=wrap;connectable=0;fillColor=none;top=0;left=0;bottom=0;right=0;overflow=hidden;fontSize=22;" vertex="1" visible="0" parent="35">
                    <mxGeometry x="120" width="120" height="45" as="geometry">
                        <mxRectangle width="120" height="45" as="alternateBounds"/>
                    </mxGeometry>
                </mxCell>
                <mxCell id="38" value="" style="shape=tableRow;horizontal=0;startSize=0;swimlaneHead=0;swimlaneBody=0;top=0;left=0;bottom=0;right=0;collapsible=0;dropTarget=0;fillColor=none;points=[[0,0.5],[1,0.5]];portConstraint=eastwest;fontSize=22;" vertex="1" parent="34">
                    <mxGeometry y="45" width="240" height="45" as="geometry"/>
                </mxCell>
                <mxCell id="39" value="prototype" style="shape=partialRectangle;html=1;whiteSpace=wrap;connectable=0;fillColor=none;top=0;left=0;bottom=0;right=0;overflow=hidden;fontSize=22;" vertex="1" parent="38">
                    <mxGeometry width="120" height="45" as="geometry">
                        <mxRectangle width="120" height="45" as="alternateBounds"/>
                    </mxGeometry>
                </mxCell>
                <mxCell id="40" value="" style="shape=partialRectangle;html=1;whiteSpace=wrap;connectable=0;fillColor=none;top=0;left=0;bottom=0;right=0;overflow=hidden;fontSize=22;" vertex="1" parent="38">
                    <mxGeometry x="120" width="120" height="45" as="geometry">
                        <mxRectangle width="120" height="45" as="alternateBounds"/>
                    </mxGeometry>
                </mxCell>
                <mxCell id="41" value="" style="shape=table;html=1;whiteSpace=wrap;startSize=0;container=1;collapsible=0;childLayout=tableLayout;fontSize=22;" vertex="1" parent="1">
                    <mxGeometry x="470" y="160" width="240" height="135" as="geometry"/>
                </mxCell>
                <mxCell id="42" value="" style="shape=tableRow;horizontal=0;startSize=0;swimlaneHead=0;swimlaneBody=0;top=0;left=0;bottom=0;right=0;collapsible=0;dropTarget=0;fillColor=none;points=[[0,0.5],[1,0.5]];portConstraint=eastwest;fontSize=22;" vertex="1" parent="41">
                    <mxGeometry width="240" height="45" as="geometry"/>
                </mxCell>
                <mxCell id="43" value="People.prototype" style="shape=partialRectangle;html=1;whiteSpace=wrap;connectable=0;fillColor=none;top=0;left=0;bottom=0;right=0;overflow=hidden;fontSize=22;rowspan=1;colspan=2;" vertex="1" parent="42">
                    <mxGeometry width="240" height="45" as="geometry">
                        <mxRectangle width="120" height="45" as="alternateBounds"/>
                    </mxGeometry>
                </mxCell>
                <mxCell id="44" value="" style="shape=partialRectangle;html=1;whiteSpace=wrap;connectable=0;fillColor=none;top=0;left=0;bottom=0;right=0;overflow=hidden;fontSize=22;" vertex="1" visible="0" parent="42">
                    <mxGeometry x="120" width="120" height="45" as="geometry">
                        <mxRectangle width="120" height="45" as="alternateBounds"/>
                    </mxGeometry>
                </mxCell>
                <mxCell id="45" value="" style="shape=tableRow;horizontal=0;startSize=0;swimlaneHead=0;swimlaneBody=0;top=0;left=0;bottom=0;right=0;collapsible=0;dropTarget=0;fillColor=none;points=[[0,0.5],[1,0.5]];portConstraint=eastwest;fontSize=22;" vertex="1" parent="41">
                    <mxGeometry y="45" width="240" height="45" as="geometry"/>
                </mxCell>
                <mxCell id="46" value="eat()" style="shape=partialRectangle;html=1;whiteSpace=wrap;connectable=0;fillColor=none;top=0;left=0;bottom=0;right=0;overflow=hidden;fontSize=22;" vertex="1" parent="45">
                    <mxGeometry width="120" height="45" as="geometry">
                        <mxRectangle width="120" height="45" as="alternateBounds"/>
                    </mxGeometry>
                </mxCell>
                <mxCell id="47" value="函数" style="shape=partialRectangle;html=1;whiteSpace=wrap;connectable=0;fillColor=none;top=0;left=0;bottom=0;right=0;overflow=hidden;fontSize=22;" vertex="1" parent="45">
                    <mxGeometry x="120" width="120" height="45" as="geometry">
                        <mxRectangle width="120" height="45" as="alternateBounds"/>
                    </mxGeometry>
                </mxCell>
                <mxCell id="86" style="shape=tableRow;horizontal=0;startSize=0;swimlaneHead=0;swimlaneBody=0;top=0;left=0;bottom=0;right=0;collapsible=0;dropTarget=0;fillColor=none;points=[[0,0.5],[1,0.5]];portConstraint=eastwest;fontSize=22;" vertex="1" parent="41">
                    <mxGeometry y="90" width="240" height="45" as="geometry"/>
                </mxCell>
                <mxCell id="87" value="__proto__" style="shape=partialRectangle;html=1;whiteSpace=wrap;connectable=0;fillColor=none;top=0;left=0;bottom=0;right=0;overflow=hidden;fontSize=22;" vertex="1" parent="86">
                    <mxGeometry width="120" height="45" as="geometry">
                        <mxRectangle width="120" height="45" as="alternateBounds"/>
                    </mxGeometry>
                </mxCell>
                <mxCell id="88" style="shape=partialRectangle;html=1;whiteSpace=wrap;connectable=0;fillColor=none;top=0;left=0;bottom=0;right=0;overflow=hidden;fontSize=22;" vertex="1" parent="86">
                    <mxGeometry x="120" width="120" height="45" as="geometry">
                        <mxRectangle width="120" height="45" as="alternateBounds"/>
                    </mxGeometry>
                </mxCell>
                <mxCell id="48" value="" style="endArrow=classic;html=1;exitX=1;exitY=0.5;exitDx=0;exitDy=0;" edge="1" parent="1" source="38" target="45">
                    <mxGeometry width="50" height="50" relative="1" as="geometry">
                        <mxPoint x="420" y="420" as="sourcePoint"/>
                        <mxPoint x="470" y="370" as="targetPoint"/>
                    </mxGeometry>
                </mxCell>
                <mxCell id="58" style="edgeStyle=none;html=1;exitX=0.825;exitY=1;exitDx=0;exitDy=0;exitPerimeter=0;" edge="1" parent="1" source="49" target="86">
                    <mxGeometry relative="1" as="geometry"/>
                </mxCell>
                <mxCell id="60" value="" style="edgeStyle=none;html=1;endArrow=none;" edge="1" parent="1" source="3" target="61">
                    <mxGeometry relative="1" as="geometry">
                        <mxPoint x="170.84337349397583" y="390" as="sourcePoint"/>
                        <mxPoint x="204.57831325301208" y="250" as="targetPoint"/>
                    </mxGeometry>
                </mxCell>
                <mxCell id="61" value="extends" style="text;html=1;strokeColor=none;fillColor=none;align=center;verticalAlign=middle;whiteSpace=wrap;rounded=0;" vertex="1" parent="1">
                    <mxGeometry x="160" y="295" width="60" height="30" as="geometry"/>
                </mxCell>
                <mxCell id="62" value="" style="endArrow=none;html=1;fontSize=22;exitX=0.5;exitY=0;exitDx=0;exitDy=0;exitPerimeter=0;" edge="1" parent="1" source="11" target="33">
                    <mxGeometry width="50" height="50" relative="1" as="geometry">
                        <mxPoint x="160" y="600" as="sourcePoint"/>
                        <mxPoint x="160" y="480" as="targetPoint"/>
                    </mxGeometry>
                </mxCell>
                <mxCell id="33" value="new" style="text;html=1;strokeColor=none;fillColor=none;align=center;verticalAlign=middle;whiteSpace=wrap;rounded=0;fontSize=22;" vertex="1" parent="1">
                    <mxGeometry x="130" y="522.5" width="60" height="30" as="geometry"/>
                </mxCell>
                <mxCell id="63" value="" style="shape=table;html=1;whiteSpace=wrap;startSize=0;container=1;collapsible=0;childLayout=tableLayout;fontSize=22;" vertex="1" parent="1">
                    <mxGeometry x="550" y="20" width="240" height="90" as="geometry"/>
                </mxCell>
                <mxCell id="64" value="" style="shape=tableRow;horizontal=0;startSize=0;swimlaneHead=0;swimlaneBody=0;top=0;left=0;bottom=0;right=0;collapsible=0;dropTarget=0;fillColor=none;points=[[0,0.5],[1,0.5]];portConstraint=eastwest;fontSize=22;" vertex="1" parent="63">
                    <mxGeometry width="240" height="45" as="geometry"/>
                </mxCell>
                <mxCell id="65" value="Object" style="shape=partialRectangle;html=1;whiteSpace=wrap;connectable=0;fillColor=none;top=0;left=0;bottom=0;right=0;overflow=hidden;fontSize=22;rowspan=1;colspan=2;" vertex="1" parent="64">
                    <mxGeometry width="240" height="45" as="geometry">
                        <mxRectangle width="120" height="45" as="alternateBounds"/>
                    </mxGeometry>
                </mxCell>
                <mxCell id="66" value="" style="shape=partialRectangle;html=1;whiteSpace=wrap;connectable=0;fillColor=none;top=0;left=0;bottom=0;right=0;overflow=hidden;fontSize=22;" vertex="1" visible="0" parent="64">
                    <mxGeometry x="120" width="120" height="45" as="geometry">
                        <mxRectangle width="120" height="45" as="alternateBounds"/>
                    </mxGeometry>
                </mxCell>
                <mxCell id="67" value="" style="shape=tableRow;horizontal=0;startSize=0;swimlaneHead=0;swimlaneBody=0;top=0;left=0;bottom=0;right=0;collapsible=0;dropTarget=0;fillColor=none;points=[[0,0.5],[1,0.5]];portConstraint=eastwest;fontSize=22;" vertex="1" parent="63">
                    <mxGeometry y="45" width="240" height="45" as="geometry"/>
                </mxCell>
                <mxCell id="68" value="prototype" style="shape=partialRectangle;html=1;whiteSpace=wrap;connectable=0;fillColor=none;top=0;left=0;bottom=0;right=0;overflow=hidden;fontSize=22;" vertex="1" parent="67">
                    <mxGeometry width="120" height="45" as="geometry">
                        <mxRectangle width="120" height="45" as="alternateBounds"/>
                    </mxGeometry>
                </mxCell>
                <mxCell id="69" value="" style="shape=partialRectangle;html=1;whiteSpace=wrap;connectable=0;fillColor=none;top=0;left=0;bottom=0;right=0;overflow=hidden;fontSize=22;" vertex="1" parent="67">
                    <mxGeometry x="120" width="120" height="45" as="geometry">
                        <mxRectangle width="120" height="45" as="alternateBounds"/>
                    </mxGeometry>
                </mxCell>
                <mxCell id="70" value="" style="shape=table;html=1;whiteSpace=wrap;startSize=0;container=1;collapsible=0;childLayout=tableLayout;fontSize=22;" vertex="1" parent="1">
                    <mxGeometry x="890" y="20" width="260" height="180" as="geometry"/>
                </mxCell>
                <mxCell id="71" value="" style="shape=tableRow;horizontal=0;startSize=0;swimlaneHead=0;swimlaneBody=0;top=0;left=0;bottom=0;right=0;collapsible=0;dropTarget=0;fillColor=none;points=[[0,0.5],[1,0.5]];portConstraint=eastwest;fontSize=22;" vertex="1" parent="70">
                    <mxGeometry width="260" height="45" as="geometry"/>
                </mxCell>
                <mxCell id="72" value="Object.prototype" style="shape=partialRectangle;html=1;whiteSpace=wrap;connectable=0;fillColor=none;top=0;left=0;bottom=0;right=0;overflow=hidden;fontSize=22;rowspan=1;colspan=2;" vertex="1" parent="71">
                    <mxGeometry width="260" height="45" as="geometry">
                        <mxRectangle width="130" height="45" as="alternateBounds"/>
                    </mxGeometry>
                </mxCell>
                <mxCell id="73" value="" style="shape=partialRectangle;html=1;whiteSpace=wrap;connectable=0;fillColor=none;top=0;left=0;bottom=0;right=0;overflow=hidden;fontSize=22;" vertex="1" visible="0" parent="71">
                    <mxGeometry x="130" width="130" height="45" as="geometry">
                        <mxRectangle width="130" height="45" as="alternateBounds"/>
                    </mxGeometry>
                </mxCell>
                <mxCell id="74" value="" style="shape=tableRow;horizontal=0;startSize=0;swimlaneHead=0;swimlaneBody=0;top=0;left=0;bottom=0;right=0;collapsible=0;dropTarget=0;fillColor=none;points=[[0,0.5],[1,0.5]];portConstraint=eastwest;fontSize=22;" vertex="1" parent="70">
                    <mxGeometry y="45" width="260" height="45" as="geometry"/>
                </mxCell>
                <mxCell id="75" value="toString（）" style="shape=partialRectangle;html=1;whiteSpace=wrap;connectable=0;fillColor=none;top=0;left=0;bottom=0;right=0;overflow=hidden;fontSize=22;" vertex="1" parent="74">
                    <mxGeometry width="130" height="45" as="geometry">
                        <mxRectangle width="130" height="45" as="alternateBounds"/>
                    </mxGeometry>
                </mxCell>
                <mxCell id="76" value="函数" style="shape=partialRectangle;html=1;whiteSpace=wrap;connectable=0;fillColor=none;top=0;left=0;bottom=0;right=0;overflow=hidden;fontSize=22;" vertex="1" parent="74">
                    <mxGeometry x="130" width="130" height="45" as="geometry">
                        <mxRectangle width="130" height="45" as="alternateBounds"/>
                    </mxGeometry>
                </mxCell>
                <mxCell id="77" style="shape=tableRow;horizontal=0;startSize=0;swimlaneHead=0;swimlaneBody=0;top=0;left=0;bottom=0;right=0;collapsible=0;dropTarget=0;fillColor=none;points=[[0,0.5],[1,0.5]];portConstraint=eastwest;fontSize=22;" vertex="1" parent="70">
                    <mxGeometry y="90" width="260" height="45" as="geometry"/>
                </mxCell>
                <mxCell id="78" value="&lt;font style=&quot;font-size: 16px;&quot;&gt;hasOwnProperty&lt;/font&gt;" style="shape=partialRectangle;html=1;whiteSpace=wrap;connectable=0;fillColor=none;top=0;left=0;bottom=0;right=0;overflow=hidden;fontSize=22;" vertex="1" parent="77">
                    <mxGeometry width="130" height="45" as="geometry">
                        <mxRectangle width="130" height="45" as="alternateBounds"/>
                    </mxGeometry>
                </mxCell>
                <mxCell id="79" style="shape=partialRectangle;html=1;whiteSpace=wrap;connectable=0;fillColor=none;top=0;left=0;bottom=0;right=0;overflow=hidden;fontSize=22;" vertex="1" parent="77">
                    <mxGeometry x="130" width="130" height="45" as="geometry">
                        <mxRectangle width="130" height="45" as="alternateBounds"/>
                    </mxGeometry>
                </mxCell>
                <mxCell id="82" style="shape=tableRow;horizontal=0;startSize=0;swimlaneHead=0;swimlaneBody=0;top=0;left=0;bottom=0;right=0;collapsible=0;dropTarget=0;fillColor=none;points=[[0,0.5],[1,0.5]];portConstraint=eastwest;fontSize=22;" vertex="1" parent="70">
                    <mxGeometry y="135" width="260" height="45" as="geometry"/>
                </mxCell>
                <mxCell id="83" value="__proto__" style="shape=partialRectangle;html=1;whiteSpace=wrap;connectable=0;fillColor=none;top=0;left=0;bottom=0;right=0;overflow=hidden;fontSize=22;" vertex="1" parent="82">
                    <mxGeometry width="130" height="45" as="geometry">
                        <mxRectangle width="130" height="45" as="alternateBounds"/>
                    </mxGeometry>
                </mxCell>
                <mxCell id="84" value="null" style="shape=partialRectangle;html=1;whiteSpace=wrap;connectable=0;fillColor=none;top=0;left=0;bottom=0;right=0;overflow=hidden;fontSize=22;" vertex="1" parent="82">
                    <mxGeometry x="130" width="130" height="45" as="geometry">
                        <mxRectangle width="130" height="45" as="alternateBounds"/>
                    </mxGeometry>
                </mxCell>
                <mxCell id="80" value="函数" style="shape=partialRectangle;html=1;whiteSpace=wrap;connectable=0;fillColor=none;top=0;left=0;bottom=0;right=0;overflow=hidden;fontSize=22;" vertex="1" parent="1">
                    <mxGeometry x="1020" y="110" width="130" height="45" as="geometry">
                        <mxRectangle width="130" height="45" as="alternateBounds"/>
                    </mxGeometry>
                </mxCell>
                <mxCell id="85" style="edgeStyle=none;html=1;exitX=1;exitY=0.5;exitDx=0;exitDy=0;entryX=0.023;entryY=0.022;entryDx=0;entryDy=0;entryPerimeter=0;fontSize=16;" edge="1" parent="1" source="67" target="77">
                    <mxGeometry relative="1" as="geometry"/>
                </mxCell>
                <mxCell id="89" style="edgeStyle=none;html=1;exitX=1;exitY=0.5;exitDx=0;exitDy=0;entryX=0;entryY=0.5;entryDx=0;entryDy=0;fontSize=16;" edge="1" parent="1" source="86" target="82">
                    <mxGeometry relative="1" as="geometry"/>
                </mxCell>
            </root>
        </mxGraphModel>
    </diagram>
</mxfile>